<svg xmlns="http://www.w3.org/2000/svg" width="720" height="420" viewBox="0 0 720 420" font-family="-apple-system, BlinkMacSystemFont, 'Segoe UI', 'Noto Sans KR', 'Apple SD Gothic Neo', 'Malgun Gothic', sans-serif">
  <rect width="720" height="420" fill="#fbfbf9"/>
  <text x="20.0" y="30.0" font-size="16" fill="#24292f" text-anchor="start" font-weight="600">입력 모양에 따른 비교 횟수 — 로그 축</text>
  <text x="20.0" y="50.0" font-size="11.5" fill="#6e7781" text-anchor="start" font-weight="400">같은 자료. 선형 축에서 사라졌던 작은 값이 여기서는 읽힌다</text>
  <line x1="78.0" y1="358.0" x2="696.0" y2="358.0" stroke="#dfe1e4" stroke-width="1" stroke-dasharray="none"/>
  <text x="68.0" y="362.0" font-size="10.5" fill="#6e7781" text-anchor="end" font-weight="400">1K</text>
  <line x1="78.0" y1="291.0" x2="696.0" y2="291.0" stroke="#dfe1e4" stroke-width="1" stroke-dasharray="none"/>
  <text x="68.0" y="295.0" font-size="10.5" fill="#6e7781" text-anchor="end" font-weight="400">10K</text>
  <line x1="78.0" y1="224.0" x2="696.0" y2="224.0" stroke="#dfe1e4" stroke-width="1" stroke-dasharray="none"/>
  <text x="68.0" y="228.0" font-size="10.5" fill="#6e7781" text-anchor="end" font-weight="400">100K</text>
  <line x1="78.0" y1="157.0" x2="696.0" y2="157.0" stroke="#dfe1e4" stroke-width="1" stroke-dasharray="none"/>
  <text x="68.0" y="161.0" font-size="10.5" fill="#6e7781" text-anchor="end" font-weight="400">1M</text>
  <line x1="78.0" y1="90.0" x2="696.0" y2="90.0" stroke="#dfe1e4" stroke-width="1" stroke-dasharray="none"/>
  <text x="68.0" y="94.0" font-size="10.5" fill="#6e7781" text-anchor="end" font-weight="400">10M</text>
  <line x1="78.0" y1="358.0" x2="696.0" y2="358.0" stroke="#6e7781" stroke-width="1" stroke-dasharray="none"/>
  <text x="20.0" y="78.0" font-size="11.5" fill="#6e7781" text-anchor="start" font-weight="400">비교 횟수</text>
  <rect x="102.6" y="117.0" width="32.1" height="241.0" fill="#0072B2"/>
  <text x="118.6" y="112.0" font-size="9.5" fill="#6e7781" text-anchor="middle" font-weight="400">4M</text>
  <rect x="137.7" y="240.9" width="32.1" height="117.1" fill="#E69F00"/>
  <text x="153.8" y="235.9" font-size="9.5" fill="#6e7781" text-anchor="middle" font-weight="400">56K</text>
  <rect x="172.8" y="229.3" width="32.1" height="128.7" fill="#009E73"/>
  <text x="188.9" y="224.3" font-size="9.5" fill="#6e7781" text-anchor="middle" font-weight="400">83K</text>
  <text x="155.2" y="376.0" font-size="11.5" fill="#24292f" text-anchor="middle" font-weight="400">무작위</text>
  <rect x="257.1" y="317.7" width="32.1" height="40.3" fill="#0072B2"/>
  <text x="273.1" y="312.7" font-size="9.5" fill="#6e7781" text-anchor="middle" font-weight="400">4K</text>
  <rect x="292.2" y="245.4" width="32.1" height="112.6" fill="#E69F00"/>
  <text x="308.2" y="240.4" font-size="9.5" fill="#6e7781" text-anchor="middle" font-weight="400">48K</text>
  <rect x="327.3" y="228.2" width="32.1" height="129.8" fill="#009E73"/>
  <text x="343.4" y="223.2" font-size="9.5" fill="#6e7781" text-anchor="middle" font-weight="400">87K</text>
  <text x="309.8" y="376.0" font-size="11.5" fill="#24292f" text-anchor="middle" font-weight="400">정렬됨</text>
  <rect x="411.6" y="96.5" width="32.1" height="261.5" fill="#0072B2"/>
  <text x="427.6" y="91.5" font-size="9.5" fill="#6e7781" text-anchor="middle" font-weight="400">8M</text>
  <rect x="446.7" y="245.4" width="32.1" height="112.6" fill="#E69F00"/>
  <text x="462.8" y="240.4" font-size="9.5" fill="#6e7781" text-anchor="middle" font-weight="400">48K</text>
  <rect x="481.8" y="230.4" width="32.1" height="127.6" fill="#009E73"/>
  <text x="497.9" y="225.4" font-size="9.5" fill="#6e7781" text-anchor="middle" font-weight="400">80K</text>
  <text x="464.2" y="376.0" font-size="11.5" fill="#24292f" text-anchor="middle" font-weight="400">역순</text>
  <rect x="566.1" y="119.9" width="32.1" height="238.1" fill="#0072B2"/>
  <text x="582.1" y="114.9" font-size="9.5" fill="#6e7781" text-anchor="middle" font-weight="400">3.6M</text>
  <rect x="601.2" y="245.3" width="32.1" height="112.7" fill="#E69F00"/>
  <text x="617.2" y="240.3" font-size="9.5" fill="#6e7781" text-anchor="middle" font-weight="400">48K</text>
  <rect x="636.3" y="232.2" width="32.1" height="125.8" fill="#009E73"/>
  <text x="652.4" y="227.2" font-size="9.5" fill="#6e7781" text-anchor="middle" font-weight="400">76K</text>
  <text x="618.8" y="376.0" font-size="11.5" fill="#24292f" text-anchor="middle" font-weight="400">중복많음</text>
  <line x1="78.0" y1="390.0" x2="100.0" y2="390.0" stroke="#0072B2" stroke-width="2.4" stroke-dasharray="none"/>
  <circle cx="89.0" cy="390.0" r="3" fill="#0072B2"/>
  <text x="106.0" y="394.0" font-size="11.5" fill="#24292f" text-anchor="start" font-weight="400">insertionSort</text>
  <line x1="209.8" y1="390.0" x2="231.8" y2="390.0" stroke="#E69F00" stroke-width="2.4" stroke-dasharray="7 4"/>
  <circle cx="220.8" cy="390.0" r="3" fill="#E69F00"/>
  <text x="237.8" y="394.0" font-size="11.5" fill="#24292f" text-anchor="start" font-weight="400">quickSort</text>
  <line x1="315.2" y1="390.0" x2="337.2" y2="390.0" stroke="#009E73" stroke-width="2.4" stroke-dasharray="2 3"/>
  <circle cx="326.2" cy="390.0" r="3" fill="#009E73"/>
  <text x="343.2" y="394.0" font-size="11.5" fill="#24292f" text-anchor="start" font-weight="400">heapSort</text>
</svg>
